Coordinates
version=1
nRows=21
nColumns=12
inDegrees=yes

Units are S.I. units (second, meters, Newtons, ...)
Angles are in degrees

endheader
time	SC_y	SC_z	SC_x	AC_y	AC_z	AC_x	GH_y	GH_z	GH_yy	EL_x	PS_y
       0.0              -33.11          36.37           20.4          55.12         -15.73          8.872         -119.9          29.19          -36.9          101.1          53.84
   0.04587              -33.12          36.37          20.41          55.12         -15.73          8.872         -119.9          29.19         -36.87          101.0          53.84
   0.09174              -33.12          36.36          20.41          55.11         -15.72          8.871         -119.9          29.19         -36.85          101.0          53.85
    0.1376              -33.12          36.36          20.42          55.11         -15.72           8.87         -119.9           29.2         -36.82          101.0          53.85
    0.1835              -33.13          36.35          20.43          55.11         -15.72           8.87         -119.9           29.2         -36.79          101.0          53.86
    0.2293              -33.13          36.35          20.44          55.11         -15.72          8.869         -119.9           29.2         -36.75          101.0          53.86
    0.2752              -33.13          36.34          20.45          55.11         -15.72          8.868         -119.9           29.2         -36.72          101.0          53.87
    0.3211              -33.14          36.33          20.46          55.11         -15.71          8.867         -119.9          29.21         -36.68          101.0          53.87
    0.3669              -33.14          36.33          20.47           55.1         -15.71          8.867         -119.9          29.21         -36.64          100.9          53.88
    0.4128              -33.14          36.32          20.49           55.1         -15.71          8.866         -119.9          29.21          -36.6          100.9          53.89
    0.4587              -33.15          36.31           20.5           55.1         -15.71          8.865         -119.9          29.22         -36.55          100.9           53.9
    0.5046              -33.15           36.3          20.51           55.1          -15.7          8.864         -119.9          29.22          -36.5          100.9          53.91
    0.5504              -33.16          36.29          20.53          55.09          -15.7          8.862         -119.9          29.23         -36.45          100.9          53.91
    0.5963              -33.16          36.28          20.55          55.09          -15.7          8.861         -119.9          29.23         -36.39          100.8          53.92
    0.6422              -33.17          36.27          20.57          55.09         -15.69           8.86         -119.9          29.24         -36.33          100.8          53.94
     0.688              -33.18          36.26          20.59          55.08         -15.69          8.858         -119.9          29.24         -36.26          100.8          53.95
    0.7339              -33.18          36.25          20.61          55.08         -15.68          8.857         -119.9          29.25         -36.19          100.7          53.96
    0.7798              -33.19          36.23          20.63          55.08         -15.68          8.855         -119.9          29.26         -36.11          100.7          53.97
    0.8256               -33.2          36.22          20.66          55.07         -15.67          8.853         -119.9          29.26         -36.02          100.7          53.99
    0.8715              -33.21           36.2          20.68          55.07         -15.67          8.851         -119.9          29.27         -35.93          100.6          54.01
    0.9174              -33.22          36.18          20.71          55.06         -15.66          8.849         -120.0          29.28         -35.82          100.6          54.02
